<svg width="184" height="64" viewBox="0 0 184 64" fill="none" xmlns="http://www.w3.org/2000/svg">
<path d="M26.3138 48.47C24.5068 46.818 23.9792 43.3472 24.7321 40.8328C26.0375 42.418 27.8463 42.9204 29.7198 43.2036C32.6122 43.6412 35.4527 43.4776 38.1396 42.1556C38.4469 42.0044 38.731 41.8028 39.0668 41.5992C39.319 42.3304 39.3846 43.0688 39.2965 43.8204C39.0824 45.6508 38.1715 47.0648 36.7228 48.1364C36.1434 48.5652 35.5304 48.9484 34.9321 49.3528C33.094 50.5948 32.5966 52.0516 33.2874 54.1708C33.3038 54.2224 33.3184 54.274 33.3556 54.4C32.4171 53.98 31.7315 53.3684 31.2092 52.5644C30.6575 51.7156 30.395 50.7768 30.3812 49.7612C30.3743 49.2668 30.3743 48.768 30.3078 48.2808C30.1455 47.0928 29.5878 46.5608 28.537 46.53C27.4586 46.4988 26.6056 47.1652 26.3794 48.2152C26.3622 48.2956 26.3371 48.3752 26.3121 48.4688L26.3138 48.47Z" fill="#17191E"/>
<path d="M16 40.4136C16 40.4136 21.351 37.8071 26.717 37.8071L30.7627 25.2862C30.9142 24.6807 31.3564 24.2692 31.8557 24.2692C32.355 24.2692 32.7973 24.6807 32.9488 25.2862L36.9945 37.8071C43.3496 37.8071 47.7116 40.4136 47.7116 40.4136C47.7116 40.4136 38.6223 15.6532 38.6046 15.6035C38.3437 14.8715 37.9033 14.4 37.3096 14.4H26.4028C25.8091 14.4 25.3865 14.8715 25.1078 15.6035C25.0882 15.6523 16 40.4136 16 40.4136Z" fill="#17191E"/>
<path d="M72.4172 32.4491C72.4172 34.6432 69.688 35.9535 65.9092 35.9535C63.4496 35.9535 62.58 35.344 62.58 34.0642C62.58 32.7233 63.6596 32.0834 66.1188 32.0834C68.3384 32.0834 70.2276 32.1138 72.4172 32.3881V32.4491ZM72.4472 29.7369C71.0976 29.4322 69.058 29.2494 66.6288 29.2494C59.5508 29.2494 56.222 30.9254 56.222 34.826C56.222 38.879 58.5012 40.4332 63.7796 40.4332C68.2484 40.4332 71.2772 39.3056 72.3872 36.5325H72.5668C72.5368 37.203 72.5068 37.8734 72.5068 38.3914C72.5068 39.8237 72.7468 39.9456 73.9164 39.9456H79.4348C79.1348 39.0923 78.9548 36.6849 78.9548 34.6127C78.9548 32.3881 79.0448 30.7121 79.0448 28.457C79.0448 23.8555 76.286 20.93 67.6484 20.93C63.9296 20.93 59.7908 21.57 56.642 22.5147C56.9416 23.7641 57.3616 26.2934 57.5716 27.939C60.3008 26.6591 64.1696 26.1106 67.1688 26.1106C71.3072 26.1106 72.4472 27.0552 72.4472 28.9751V29.7369Z" fill="#17191E"/>
<path d="M87.5884 33.729C86.8388 33.8204 85.8188 33.8204 84.7692 33.8204C83.6596 33.8204 82.64 33.7899 81.95 33.6985C81.95 33.9423 81.92 34.2165 81.92 34.4603C81.92 38.2695 84.4092 40.494 93.1668 40.494C101.414 40.494 104.083 38.3 104.083 34.4298C104.083 30.773 102.314 28.9751 94.4864 28.5789C88.398 28.3046 87.8584 27.6342 87.8584 26.8724C87.8584 25.9887 88.638 25.5316 92.7168 25.5316C96.9456 25.5316 98.0852 26.1106 98.0852 27.3295V27.6038C98.6848 27.5733 99.7648 27.5428 100.874 27.5428C101.924 27.5428 103.064 27.5733 103.724 27.6342C103.724 27.36 103.754 27.1162 103.754 26.9029C103.754 22.4232 100.034 20.9605 92.8368 20.9605C84.7392 20.9605 82.01 22.9413 82.01 26.8114C82.01 30.2854 84.1996 32.4491 91.9672 32.7843C97.6952 32.9671 98.3252 33.6071 98.3252 34.4908C98.3252 35.4355 97.3952 35.8621 93.3768 35.8621C88.758 35.8621 87.5884 35.2222 87.5884 33.9118V33.729Z" fill="#17191E"/>
<path d="M113.982 17.6694C111.793 19.7111 107.864 21.7528 105.675 22.3014C105.705 23.4289 105.705 25.5011 105.705 26.6286L107.714 26.6591C107.684 28.8227 107.654 31.4434 107.654 33.1804C107.654 37.2334 109.783 40.2808 116.411 40.2808C119.2 40.2808 121.06 39.976 123.369 39.4885C123.129 37.9952 122.859 35.7097 122.769 33.9728C121.39 34.4298 119.65 34.6736 117.731 34.6736C115.062 34.6736 113.982 33.9423 113.982 31.8396C113.982 30.0112 113.982 28.3046 114.012 26.72C117.431 26.7505 120.85 26.8114 122.859 26.8724C122.829 25.2878 122.889 23.0022 122.979 21.4786C120.07 21.5395 116.801 21.57 114.102 21.57C114.132 20.2292 114.162 18.9493 114.192 17.6694H113.982Z" fill="#17191E"/>
<path d="M131.894 25.7144C131.924 24.1298 131.954 22.789 131.984 21.4786H125.956C126.046 24.0993 126.046 26.781 126.046 30.7121C126.046 34.6432 126.016 37.3553 125.956 39.9456H132.854C132.734 38.1172 132.704 35.0393 132.704 32.4186C132.704 28.2742 134.384 27.0857 138.192 27.0857C139.962 27.0857 141.222 27.299 142.331 27.6952C142.361 26.141 142.661 23.1242 142.841 21.7833C141.701 21.4481 140.442 21.2348 138.912 21.2348C135.643 21.2043 133.244 22.5452 132.134 25.7449L131.894 25.7144Z" fill="#17191E"/>
<path d="M161.923 30.5902C161.923 33.9118 159.524 35.466 155.745 35.466C151.996 35.466 149.597 34.0032 149.597 30.5902C149.597 27.1771 152.026 25.8972 155.745 25.8972C159.494 25.8972 161.923 27.2686 161.923 30.5902ZM168.191 30.4378C168.191 23.825 163.033 20.8691 155.745 20.8691C148.428 20.8691 143.449 23.825 143.449 30.4378C143.449 37.0201 148.098 40.5552 155.715 40.5552C163.393 40.5552 168.191 37.0201 168.191 30.4378Z" fill="#17191E"/>
</svg>
